<svg version="1.1" viewBox="0.0 0.0 266.0551181102362 76.8005249343832" fill="none" stroke="none" stroke-linecap="square" stroke-miterlimit="10" xmlns:xlink="http://www.w3.org/1999/xlink" xmlns="http://www.w3.org/2000/svg"><clipPath id="p.0"><path d="m0 0l266.0551 0l0 76.80052l-266.0551 0l0 -76.80052z" clip-rule="nonzero"/></clipPath><g clip-path="url(#p.0)"><path fill="#000000" fill-opacity="0.0" d="m0 0l266.0551 0l0 76.80052l-266.0551 0z" fill-rule="evenodd"/><path fill="#c9daf8" d="m96.00708 10.203266c-2.534851 0 -4.560959 0.57922935 -6.0783234 1.7376881c-1.5173569 1.1584587 -2.2760468 2.7707653 -2.2760468 4.83692c0 1.8895588 0.528244 3.42593 1.5847244 4.609112c1.0600281 1.1831818 2.7511063 2.1809387 5.073242 2.9932747c2.2157822 0.787611 3.6409683 1.4339447 4.275566 1.9390049c0.6345978 0.5015278 0.95189667 1.1937771 0.95189667 2.0767498c0 2.0908756 -1.6343536 3.1363163 -4.9030685 3.1363163c-2.0704193 0 -4.4989166 -0.5651016 -7.2854767 -1.6953068l0 4.27005c1.9392471 0.89356995 4.3677444 1.3403511 7.2854767 1.3403511c2.868103 0 5.112236 -0.6375046 6.7324142 -1.9125137c1.6237259 -1.2785454 2.435585 -3.044489 2.435585 -5.2978306c0 -1.7270927 -0.48747253 -3.1398487 -1.46241 -4.238266c-0.971405 -1.0984154 -2.8202438 -2.135025 -5.5465393 -3.1098251c-2.09169 -0.72050476 -3.4335632 -1.3580112 -4.0256195 -1.9125175c-0.58851624 -0.5580368 -0.8827667 -1.2803078 -0.8827667 -2.166813c0 -1.7624111 1.3312378 -2.6436176 3.9937134 -2.6436167c1.6875381 0 3.729599 0.4821024 6.1261826 1.4463072l1.5155945 -3.8621178c-2.4816742 -1.031311 -4.986389 -1.5469666 -7.514145 -1.5469666z" fill-rule="evenodd"/><path fill="#c9daf8" d="m118.20385 26.62654l0 0.8635464c0 1.3703728 -0.39707184 2.4246407 -1.1912003 3.1628056c-0.7905884 0.7346325 -1.8789825 1.1019497 -3.2651672 1.1019497c-1.6733627 0 -2.5100327 -0.71697426 -2.5100327 -2.1509209c0 -0.9218216 0.35806274 -1.6158371 1.0742035 -2.0820465c0.71614075 -0.4662094 2.0544739 -0.7381649 4.0149918 -0.8158665l1.8772049 -0.07946777zm-3.3077087 -10.6221485c-2.0952454 0 -4.4297867 0.62867546 -7.0036316 1.8860264l1.5634537 3.3906116c2.2476883 -1.0136509 4.1036224 -1.5204773 5.5678024 -1.5204773c2.141327 0 3.2119904 1.0242481 3.2119904 3.0727425l0 0.43972015l-2.5791626 0.090063095c-5.863838 0.1836586 -8.7957535 2.2533436 -8.7957535 6.209057c0 1.8401146 0.56015015 3.279356 1.6804504 4.317732c1.1238403 1.0383759 2.6412048 1.55756 4.5520935 1.55756c1.46064 0 2.6677933 -0.22074127 3.6214676 -0.66222763c0.9018936 -0.41596985 1.6527176 -1.1752739 2.252472 -2.2779121l0 0l0.16183472 2.6222725l3.3077164 0l0 -12.630028c0 -2.2427483 -0.611557 -3.8850765 -1.8346634 -4.926983c-1.223114 -1.0454388 -3.1251373 -1.5681572 -5.70607 -1.5681572z" fill-rule="evenodd"/><path fill="#c9daf8" d="m134.4393 19.442682c1.9392395 0 2.9088593 1.0401402 2.9088593 3.1204224c0 1.9849205 -0.9589844 2.9773808 -2.8769531 2.9773808c-1.9605255 0 -2.9407806 -0.9765663 -2.9407806 -2.9297009c0 -2.1120682 0.96961975 -3.1681023 2.9088745 -3.1681023zm1.5953522 15.400793c1.4464569 0 2.3540497 0.111255646 2.7227478 0.33376312c0.36871338 0.22603989 0.5530548 0.6781235 0.5530548 1.3562431c0 1.9107513 -1.8736572 2.866127 -5.620987 2.866127c-2.428482 0 -3.6427307 -0.6957817 -3.6427307 -2.0873451c0 -1.6458588 0.9962158 -2.4687881 2.9886475 -2.4687881zm-1.4996338 -18.839085c-2.2725067 0 -4.0451202 0.58629227 -5.317871 1.7588787c-1.2691956 1.1690559 -1.9037933 2.816681 -1.9037933 4.942877c0 1.1937771 0.3066635 2.3027897 0.91999817 3.3270378c0.61331177 1.0242481 1.0476074 1.5893478 1.3028717 1.6953049c-0.865036 0.5191879 -1.2975616 1.4992867 -1.2975616 2.9402962c0 1.4162865 0.13648987 2.166813 0.4094696 2.2515793c-1.8045197 0.38850784 -2.706787 1.8842621 -2.706787 4.487259c0 1.7694778 0.68068695 3.134552 2.0420609 4.0952263c1.3613663 0.9642029 3.274025 1.4463043 5.7379837 1.4463043c6.462967 0 9.694458 -2.22332 9.694458 -6.6699677c0 -1.7270927 -0.56192017 -3.0586128 -1.6857605 -3.994564c-1.1238403 -0.9359493 -2.6926117 -1.403925 -4.706314 -1.403925l-2.9833221 0c-1.2585602 0 -1.8878326 -0.21897697 -1.8878326 -0.6569309c0 -0.5509739 0.34388733 -1.0171833 1.031662 -1.3986263c0.20916748 0.038850784 0.62750244 0.058275223 1.2550201 0.058275223c2.1945038 0 3.928131 -0.56863403 5.2008667 -1.7059002c1.2727509 -1.1372681 1.9091187 -2.6595097 1.9091187 -4.5667305c0 -1.5081158 -0.1559906 -2.4652576 -0.4679718 -2.8714237l2.5578918 -0.34965706l0 -3.0674438l-6.6047974 0c-0.6806793 -0.21191216 -1.5138092 -0.3178692 -2.4993896 -0.3178692z" fill-rule="evenodd"/><path fill="#c9daf8" d="m154.60464 19.760551c2.4391174 0 3.6586914 1.1637573 3.6586914 3.49127l-7.7215424 0c0.20207214 -2.3275127 1.556366 -3.49127 4.062851 -3.49127zm0.063812256 -3.7561607c-2.619934 0 -4.7134094 0.89533234 -6.2803955 2.685999c-1.5634613 1.7871342 -2.3451843 4.1746902 -2.3451843 7.162668c0 2.9597187 0.84732056 5.299593 2.5419464 7.019623c1.6946259 1.7164993 3.9405365 2.5747452 6.737732 2.5747452c2.2051392 0 4.367737 -0.47680283 6.487793 -1.4304123l0 -4.0157547c-2.4107666 1.0419044 -4.6052704 1.5628586 -6.5835114 1.5628586c-3.1304626 0 -4.727585 -1.5346031 -4.791397 -4.603813l12.332123 0l0 -2.4740868c0 -2.5429592 -0.7374115 -4.5914536 -2.2122345 -6.145485c-1.474823 -1.5575619 -3.4371033 -2.3363419 -5.8868713 -2.3363419z" fill-rule="evenodd"/><path fill="#c9daf8" d="m168.0748 23.712734l0 4.02635l11.874786 0l0 -4.02635z" fill-rule="evenodd"/><path fill="#c9daf8" d="m196.5307 10.203266c-3.5027008 0 -6.26799 1.1407995 -8.295883 3.4223986c-2.0278778 2.2780666 -3.041809 5.3366804 -3.041809 9.175841c0 3.9874992 0.9323883 7.0920296 2.7971954 9.313587c1.8647919 2.2215576 4.546768 3.3323326 8.045929 3.3323326c2.343399 0 4.4740906 -0.38674164 6.3920746 -1.1602211l0 -3.9362907c-2.6128387 0.76642036 -4.5786896 1.1496296 -5.8975067 1.1496296c-2.2370605 0 -3.9352264 -0.72403526 -5.094528 -2.1721096c-1.1592865 -1.4480743 -1.7389374 -3.613121 -1.7389374 -6.49514c0 -2.71249 0.62042236 -4.8351536 1.8612518 -6.3679924c1.2443848 -1.5328388 2.9017792 -2.2992573 4.9722137 -2.2992582c1.4960938 0 3.2190704 0.4909315 5.1689606 1.4727964l1.8452911 -3.6819916c-2.2228546 -1.169055 -4.5609436 -1.753582 -7.0142517 -1.753582z" fill-rule="evenodd"/><path fill="#c9daf8" d="m213.18625 19.760551c2.864563 0 4.296829 1.9778576 4.296829 5.933571c0 3.9980946 -1.4216309 5.997143 -4.264923 5.997143c-2.8539124 0 -4.280884 -1.9990482 -4.280884 -5.997143c0 -3.9557133 1.416336 -5.933571 4.2489777 -5.933571zm0.063812256 -3.7561607c-2.6483002 0 -4.7559357 0.8759079 -6.322937 2.6277237c-1.5670013 1.7482834 -2.3504944 4.1022854 -2.3504944 7.062008c0 2.9279327 0.8047638 5.285467 2.4143066 7.072605c1.6095428 1.7871323 3.6640167 2.6806984 6.1634064 2.6806984c2.6270294 0 4.731125 -0.8794365 6.3123016 -2.638317c1.584732 -1.7624111 2.3770905 -4.1340733 2.3770905 -7.1149864c0 -2.8961487 -0.8029938 -5.2342567 -2.4089966 -7.014328c-1.6024475 -1.7836037 -3.6640015 -2.6754036 -6.184677 -2.6754036z" fill-rule="evenodd"/><path fill="#c9daf8" d="m232.56987 19.760551c1.3826447 0 2.3877258 0.43442345 3.0152283 1.3032665c0.63105774 0.868845 0.946579 2.4334698 0.946579 4.693878l0 0.6463356c-0.038986206 1.9460697 -0.35629272 3.3146763 -0.95188904 4.105818c-0.5956116 0.787611 -1.5882721 1.1814156 -2.978012 1.1814156c-2.4604034 0 -3.6905975 -1.9672604 -3.6905975 -5.901783c0 -4.019287 1.2195587 -6.0289307 3.6586914 -6.0289307zm3.9618073 -10.71751l0 7.607685c0 0.26309204 0.11419678 0.7421665 0.34259033 1.4372196l0 0c-1.1270905 -1.3890362 -2.7267456 -2.0835552 -4.7989655 -2.0835552c-2.3504944 0 -4.1957855 0.8723755 -5.5358887 2.6171284c-1.3365631 1.744751 -2.004837 4.123476 -2.004837 7.136177c0 2.9915066 0.6665039 5.3543396 1.9995117 7.0884953c1.3330231 1.7341576 3.1800842 2.6012344 5.541214 2.6012344c2.3654327 0 4.0773926 -0.95048904 5.135849 -2.8514748l0 0l-0.009414673 2.5336075l3.5948792 0l0 -26.086517z" fill-rule="evenodd"/><path fill="#c9daf8" d="m252.6395 19.760551c2.4391327 0 3.6586914 1.1637573 3.6586914 3.49127l-7.7215424 0c0.2020874 -2.3275127 1.556366 -3.49127 4.062851 -3.49127zm0.063812256 -3.7561607c-2.619934 0 -4.7134094 0.89533234 -6.2803955 2.685999c-1.5634613 1.7871342 -2.3451843 4.1746902 -2.3451843 7.162668c0 2.9597187 0.84732056 5.299593 2.5419464 7.019623c1.6946259 1.7164993 3.9405365 2.5747452 6.737732 2.5747452c2.2051392 0 4.367752 -0.47680283 6.487808 -1.4304123l0 -4.0157547c-2.4107666 1.0419044 -4.6052856 1.5628586 -6.5835266 1.5628586c-3.1304474 0 -4.727585 -1.5346031 -4.791397 -4.603813l12.332138 0l0 -2.4740868c0 -2.5429592 -0.73742676 -4.5914536 -2.2122498 -6.145485c-1.474823 -1.5575619 -3.4371033 -2.3363419 -5.8868713 -2.3363419z" fill-rule="evenodd"/><path fill="#c9daf8" d="m93.59922 50.722454c1.1221695 0 1.9099808 0.17855453 2.3634338 0.5356636c0.45345306 0.35478973 0.6801758 0.94958496 0.6801758 1.7843819c0 0.8603096 -0.23130798 1.4817696 -0.6939163 1.8643875c-0.46261597 0.3802948 -1.2286682 0.570446 -2.2981644 0.570446l-1.2504272 0l0 -4.754879zm-4.005478 -2.5496178l0 16.146416l2.8065796 0l0 -6.302738l1.6660843 0l3.6069946 6.302738l3.290947 0l-4.21846 -7.0471c1.8435745 -0.6771164 2.765358 -2.1183052 2.765358 -4.3235664c0 -3.183834 -1.9328918 -4.775749 -5.798668 -4.775749z" fill-rule="evenodd"/><path fill="#c9daf8" d="m107.24394 54.22861c1.5756226 0 2.3634338 0.7640724 2.3634338 2.292221l-4.9879456 0c0.13053894 -1.5281487 1.0053711 -2.292221 2.6245117 -2.292221zm0.04122162 -2.466137c-1.692421 0 -3.0447617 0.5878372 -4.057007 1.7635155c-1.0099564 1.1733551 -1.5149307 2.7409248 -1.5149307 4.7027016c0 1.9432297 0.5473404 3.4794922 1.6420364 4.6087914c1.094696 1.126976 2.5455017 1.690464 4.3524323 1.690464c1.4244766 0 2.8214722 -0.31304932 4.190979 -0.93914795l0 -2.6365738c-1.5573044 0.6840706 -2.974907 1.0261078 -4.2528152 1.0261078c-2.0222015 0 -3.053917 -1.0075569 -3.0951385 -3.0226707l7.9662933 0l0 -1.6243782c0 -1.6696014 -0.47634888 -3.014553 -1.4290543 -4.0348663c-0.95269775 -1.0226288 -2.2202988 -1.5339432 -3.8027954 -1.5339432z" fill-rule="evenodd"/><path fill="#c9daf8" d="m120.033295 51.762474c-1.4450836 0 -2.601616 0.30493546 -3.4695816 0.91480255c-0.8656769 0.6098671 -1.2985153 1.4655342 -1.2985153 2.567009c0 0.7953758 0.23703003 1.4817657 0.7110901 2.0591698c0.47406006 0.5750847 1.5492859 1.1791534 3.2256775 1.8122101c1.1656876 0.4266777 1.8813629 0.75595856 2.1470184 0.9878464c0.26565552 0.2295723 0.3984909 0.47421265 0.3984909 0.7339287c0 0.83016205 -0.7981186 1.2452431 -2.3943558 1.2452431c-1.1542358 0 -2.5718384 -0.37913895 -4.2528152 -1.137413l0 2.6817932c1.0901184 0.60058975 2.5248947 0.9008827 4.304344 0.9008827c1.5664597 0 2.8008575 -0.3339157 3.7031708 -1.0017548c0.90232086 -0.66783905 1.3534851 -1.5988731 1.3534851 -2.7931023c0 -0.8672638 -0.27024078 -1.5942345 -0.8107147 -2.180912c-0.54048157 -0.5889969 -1.5699005 -1.1629219 -3.088272 -1.721775c-1.2114868 -0.43827057 -1.9523544 -0.75595474 -2.2225876 -0.95306396c-0.26795197 -0.19710541 -0.40192413 -0.43247223 -0.40192413 -0.70610046c0 -0.62841797 0.6641464 -0.94262695 1.9924316 -0.94262695c0.8862915 0 2.0634232 0.29449844 3.5314102 0.88349533l0.94125366 -2.368744c-1.4908905 -0.65392303 -2.9474258 -0.98088837 -4.369606 -0.98088837z" fill-rule="evenodd"/><path fill="#c9daf8" d="m132.5753 54.22861c1.5756226 0 2.363449 0.7640724 2.363449 2.292221l-4.987961 0c0.13053894 -1.5281487 1.0053864 -2.292221 2.6245117 -2.292221zm0.041229248 -2.466137c-1.6924286 0 -3.044754 0.5878372 -4.057007 1.7635155c-1.0099564 1.1733551 -1.5149307 2.7409248 -1.5149307 4.7027016c0 1.9432297 0.5473404 3.4794922 1.6420364 4.6087914c1.094696 1.126976 2.5455017 1.690464 4.3524323 1.690464c1.424469 0 2.8214722 -0.31304932 4.190979 -0.93914795l0 -2.6365738c-1.5572968 0.6840706 -2.9749146 1.0261078 -4.2528076 1.0261078c-2.0222015 0 -3.0539246 -1.0075569 -3.0951385 -3.0226707l7.9662933 0l0 -1.6243782c0 -1.6696014 -0.47636414 -3.014553 -1.4290619 -4.0348663c-0.95269775 -1.0226288 -2.2203064 -1.5339432 -3.8027954 -1.5339432z" fill-rule="evenodd"/><path fill="#c9daf8" d="m147.05823 58.73653l0 0.566967c0 0.89972687 -0.25650024 1.5919151 -0.7694855 2.076561c-0.51071167 0.48233032 -1.2137909 0.7234955 -2.1092377 0.7234955c-1.0809479 0 -1.6214294 -0.47073364 -1.6214294 -1.4122047c0 -0.6052284 0.23130798 -1.0608902 0.69392395 -1.3669815c0.4626007 -0.30609512 1.3271332 -0.48464966 2.5935974 -0.5356636l1.2126312 -0.052173615zm-2.1367188 -6.9740562c-1.3534698 0 -2.8615417 0.4127617 -4.524185 1.2382851l1.0099487 2.2261314c1.4519653 -0.6655197 2.6508484 -0.9982796 3.596695 -0.9982796c1.3832397 0 2.0748749 0.6724777 2.0748749 2.0174332l0 0.2887001l-1.6660919 0.059131622c-3.7879028 0.12058258 -5.6818695 1.4794502 -5.6818695 4.076603c0 1.2081413 0.36184692 2.1530876 1.0855408 2.8348427c0.72598267 0.68175125 1.7061615 1.022625 2.9405518 1.022625c0.9435425 0 1.7233429 -0.14492798 2.339386 -0.43479156c0.5826111 -0.27310562 1.067627 -0.77163315 1.4550629 -1.4955788l0 0l0.104537964 1.7216759l2.1367035 0l0 -8.292343c0 -1.4724922 -0.39505005 -2.5507774 -1.1851501 -3.234848c-0.7901001 -0.6863899 -2.0187683 -1.0295868 -3.6860046 -1.0295868z" fill-rule="evenodd"/><path fill="#c9daf8" d="m159.88536 51.762474c-0.95269775 0 -1.7599792 0.19710541 -2.4218292 0.5913162c-0.6082916 0.3601799 -1.0927887 0.9544411 -1.453476 1.7827759l0 0l0.07594299 -2.16539l-2.3600006 0l0 12.348076l2.7550507 0l0 -6.6227455c0 -1.0991516 0.26223755 -1.9258347 0.78666687 -2.4800491c0.5244446 -0.5542145 1.2836304 -0.8313217 2.2775574 -0.8313217c0.6412506 0 1.5069275 0.20174408 2.5970306 0.6052284l0.75575256 -2.5878754c-1.1450653 -0.4266777 -2.1493073 -0.64001465 -3.0126953 -0.64001465z" fill-rule="evenodd"/><path fill="#c9daf8" d="m171.58232 51.762474c-1.930603 0 -3.4363708 0.55537415 -4.517334 1.6661224c-1.0809479 1.1084251 -1.6214294 2.7015038 -1.6214294 4.7792244c0 2.0127945 0.5301819 3.5699272 1.5905151 4.671398c1.0603485 1.0991554 2.535202 1.6487274 4.424576 1.6487274c1.4038696 0 2.6806183 -0.26551056 3.8302765 -0.7965355l0 -2.5983124c-1.4725647 0.563488 -2.7218475 0.8452339 -3.7478333 0.8452339c-2.187088 0 -3.2806396 -1.263794 -3.2806396 -3.7913818c0 -2.5762825 1.1278992 -3.8644257 3.3836975 -3.8644257c0.7580414 0 1.7622681 0.24116516 3.0126953 0.7234955l0.9618683 -2.480053c-1.4153137 -0.5356598 -2.760788 -0.8034935 -4.036392 -0.8034935z" fill-rule="evenodd"/><path fill="#c9daf8" d="m177.98558 47.191948l0 17.127304l2.7550507 0l0 -6.38274c0 -2.4719353 0.90805054 -3.707901 2.7241364 -3.707901c1.3420258 0 2.0130463 0.75595856 2.0130463 2.2678719l0 7.822769l2.7550507 0l0 -7.92712c0 -3.0864372 -1.4828796 -4.6296577 -4.4486237 -4.6296577c-1.5223236 0 -2.6156769 0.49814987 -3.2800293 1.4944496l0 0l0.23641968 -0.78487015l0 -5.2801056z" fill-rule="evenodd"/><path fill="#000000" fill-opacity="0.0" d="m45.44897 14.586316l5.3668785 -5.446024l29.079094 29.507938l-28.687943 29.112808l-28.885283 -29.309483l17.566565 -17.823837" fill-rule="evenodd"/><path stroke="#efefef" stroke-width="4.0" stroke-linejoin="round" stroke-linecap="butt" d="m45.44897 14.586316l5.3668785 -5.446024l29.079094 29.507938l-28.687943 29.112808l-28.885283 -29.309483l17.566565 -17.823837" fill-rule="evenodd"/><path fill="#000000" fill-opacity="0.0" d="m39.39451 62.313225l-5.2682076 4.9507675l-28.883518 -29.11102l29.079094 -29.11102l28.296795 29.507938l-16.393112 16.634869" fill-rule="evenodd"/><path stroke="#efefef" stroke-width="4.0" stroke-linejoin="round" stroke-linecap="butt" d="m39.39451 62.313225l-5.2682076 4.9507675l-28.883518 -29.11102l29.079094 -29.11102l28.296795 29.507938l-16.393112 16.634869" fill-rule="evenodd"/></g></svg>